<?xml version="1.0" encoding="UTF-8"?>
<!DOCTYPE svg PUBLIC "-//W3C//DTD SVG 1.1//EN" "http://www.w3.org/Graphics/SVG/1.1/DTD/svg11.dtd">
<!-- Creator: CorelDRAW -->
<svg xmlns="http://www.w3.org/2000/svg" xml:space="preserve" width="6.82666in" height="6.82666in" style="shape-rendering:geometricPrecision; text-rendering:geometricPrecision; image-rendering:optimizeQuality; fill-rule:evenodd; clip-rule:evenodd"
viewBox="0 0 6.82666 6.82666"
 xmlns:xlink="http://www.w3.org/1999/xlink">
 <defs>
  <style type="text/css">
   <![CDATA[
    .fil2 {fill:none}
    .fil0 {fill:#66BB6A}
    .fil1 {fill:#FFFFFE;fill-rule:nonzero}
   ]]>
  </style>
 </defs>
 <g id="Layer_x0020_1">
  <metadata id="CorelCorpID_0Corel-Layer"/>
  <rect class="fil0" width="6.82666" height="6.82666"/>
  <path class="fil1" d="M5.45444 2.48082l-0.00289764 0 -0.877929 0c-0.0589094,0 -0.106669,-0.0477598 -0.106669,-0.106669l0 -0.879843 0 -0.000984252c0,-0.0589094 0.0477598,-0.106669 0.106669,-0.106669 0.0297913,0 0.0567205,0.0122165 0.0760748,0.0319094l0.880169 0.880169 7.87402e-006 -7.87402e-006c0.0416535,0.0416535 0.0416535,0.109197 0,0.15085 -0.0208268,0.0208268 -0.048126,0.0312402 -0.0754252,0.0312402l0 3.93701e-006zm-0.774157 -0.213339l0.516654 0 -0.516654 -0.516654 0 0.516654z"/>
  <path class="fil1" d="M2.57953 1.38666l1.99409 0c0.0297913,0 0.0567205,0.0122165 0.0760748,0.0319094l0.880169 0.880169 7.87402e-006 -7.87402e-006c0.0208268,0.0208268 0.0312402,0.048126 0.0312402,0.0754252l3.93701e-006 0 0 3.54418c0,0.0589094 -0.0477598,0.106669 -0.106669,0.106669l-2.87491 0c-0.0589094,0 -0.106669,-0.0477598 -0.106669,-0.106669l0 -4.425c0,-0.0589094 0.0477598,-0.106669 0.106669,-0.106669zm1.94992 0.213339l-1.84325 0 0 4.21167 2.66157 0 0 -3.39334 -0.818323 -0.818323z"/>
  <path class="fil1" d="M4.2325 1.43828c0,0.0589094 0.0477598,0.106669 0.106669,0.106669 0.0589094,0 0.106669,-0.0477598 0.106669,-0.106669l0 -0.478283c0,-0.0589094 -0.0477598,-0.106669 -0.106669,-0.106669l-2.52075 0c-0.0589094,0 -0.106669,0.0477598 -0.106669,0.106669l0 4.425c0,0.0589094 0.0477598,0.106669 0.106669,0.106669l0.75137 0c0.0589094,0 0.106669,-0.0477598 0.106669,-0.106669 0,-0.0589094 -0.0477598,-0.106669 -0.106669,-0.106669l-0.644701 0 0 -4.21167 2.30741 0 0 0.371614z"/>
  <path class="fil1" d="M2.98667 2.34667c-0.0589094,0 -0.106669,0.0477598 -0.106669,0.106669 0,0.0589094 0.0477598,0.106669 0.106669,0.106669l0.953728 0c0.0589094,0 0.106669,-0.0477598 0.106669,-0.106669 0,-0.0589094 -0.0477598,-0.106669 -0.106669,-0.106669l-0.953728 0z"/>
  <path class="fil1" d="M2.98667 2.87999c-0.0589094,0 -0.106669,0.0477598 -0.106669,0.106669 0,0.0589094 0.0477598,0.106669 0.106669,0.106669l2.02667 0c0.0589094,0 0.106669,-0.0477598 0.106669,-0.106669 0,-0.0589094 -0.0477598,-0.106669 -0.106669,-0.106669l-2.02667 0z"/>
  <path class="fil1" d="M2.98667 3.44888c-0.0589094,0 -0.106669,0.0477598 -0.106669,0.106669 0,0.0589094 0.0477598,0.106669 0.106669,0.106669l2.02667 0c0.0589094,0 0.106669,-0.0477598 0.106669,-0.106669 0,-0.0589094 -0.0477598,-0.106669 -0.106669,-0.106669l-2.02667 0z"/>
  <path class="fil1" d="M2.98667 4.01776c-0.0589094,0 -0.106669,0.0477598 -0.106669,0.106669 0,0.0589094 0.0477598,0.106669 0.106669,0.106669l2.02667 0c0.0589094,0 0.106669,-0.0477598 0.106669,-0.106669 0,-0.0589094 -0.0477598,-0.106669 -0.106669,-0.106669l-2.02667 0z"/>
  <path class="fil1" d="M2.98667 4.58665c-0.0589094,0 -0.106669,0.0477598 -0.106669,0.106669 0,0.0589094 0.0477598,0.106669 0.106669,0.106669l2.02667 0c0.0589094,0 0.106669,-0.0477598 0.106669,-0.106669 0,-0.0589094 -0.0477598,-0.106669 -0.106669,-0.106669l-2.02667 0z"/>
  <path class="fil1" d="M2.98667 5.12c-0.0589094,0 -0.106669,0.0477598 -0.106669,0.106669 0,0.0589094 0.0477598,0.106669 0.106669,0.106669l2.02667 0c0.0589094,0 0.106669,-0.0477598 0.106669,-0.106669 0,-0.0589094 -0.0477598,-0.106669 -0.106669,-0.106669l-2.02667 0z"/>
  <rect class="fil2" width="6.82666" height="6.82666"/>
 </g>
</svg>
